<?xml version="1.0" encoding="utf-8"?>
<!-- Generator: Adobe Illustrator 25.0.1, SVG Export Plug-In . SVG Version: 6.00 Build 0)  -->
<svg version="1.1" id="Capa_1" xmlns="http://www.w3.org/2000/svg" xmlns:xlink="http://www.w3.org/1999/xlink" x="0px" y="0px"
	 viewBox="0 0 993.3 892" style="enable-background:new 0 0 993.3 892;" xml:space="preserve">
<style type="text/css">
	.st0{fill:#3F3F3E;}
	.st1{fill:#FCFBF5;stroke:#3F3F3E;stroke-width:2.2881;}
	.st2{enable-background:new    ;}
	.st3{clip-path:url(#SVGID_2_);enable-background:new    ;}
	.st4{fill:#81610F;}
	.st5{fill:#7C5D0E;}
	.st6{fill:#785A0E;}
	.st7{fill:#8E6B10;}
	.st8{clip-path:url(#SVGID_4_);enable-background:new    ;}
	.st9{fill:#85640F;}
	.st10{fill:#8A6810;}
	.st11{fill:#8F6B10;}
	.st12{clip-path:url(#SVGID_6_);enable-background:new    ;}
	.st13{fill:#9D8E0A;}
	.st14{fill:#D39F18;}
	.st15{fill:#EA0007;}
	.st16{fill:#9D0005;}
	.st17{clip-path:url(#SVGID_8_);enable-background:new    ;}
	.st18{clip-path:url(#SVGID_10_);enable-background:new    ;}
	.st19{fill:#EAD30F;}
	.st20{clip-path:url(#SVGID_12_);enable-background:new    ;}
	.st21{clip-path:url(#SVGID_14_);enable-background:new    ;}
	.st22{clip-path:url(#SVGID_16_);enable-background:new    ;}
	.st23{fill:#998A0A;}
	.st24{fill:#948509;}
	.st25{clip-path:url(#SVGID_18_);enable-background:new    ;}
	.st26{fill:#990005;}
	.st27{clip-path:url(#SVGID_20_);enable-background:new    ;}
	.st28{clip-path:url(#SVGID_22_);enable-background:new    ;}
	.st29{fill:#857808;}
	.st30{clip-path:url(#SVGID_24_);enable-background:new    ;}
	.st31{clip-path:url(#SVGID_26_);enable-background:new    ;}
	.st32{fill:#9E0005;}
	.st33{clip-path:url(#SVGID_28_);enable-background:new    ;}
	.st34{fill:#9E8F0A;}
	.st35{clip-path:url(#SVGID_30_);enable-background:new    ;}
	.st36{clip-path:url(#SVGID_32_);enable-background:new    ;}
	.st37{clip-path:url(#SVGID_34_);enable-background:new    ;}
	.st38{fill:#850004;}
	.st39{clip-path:url(#SVGID_36_);enable-background:new    ;}
	.st40{clip-path:url(#SVGID_38_);enable-background:new    ;}
	.st41{clip-path:url(#SVGID_40_);enable-background:new    ;}
	.st42{clip-path:url(#SVGID_42_);enable-background:new    ;}
	.st43{clip-path:url(#SVGID_44_);enable-background:new    ;}
	.st44{clip-path:url(#SVGID_46_);enable-background:new    ;}
	.st45{fill:#8F8109;}
	.st46{clip-path:url(#SVGID_48_);enable-background:new    ;}
	.st47{fill:#8A7C09;}
	.st48{clip-path:url(#SVGID_50_);enable-background:new    ;}
	.st49{clip-path:url(#SVGID_52_);enable-background:new    ;}
	.st50{clip-path:url(#SVGID_54_);enable-background:new    ;}
	.st51{clip-path:url(#SVGID_56_);enable-background:new    ;}
</style>
<g>
	<g>
		<g>
			<path class="st0" d="M279.7,363.5C482,174,725.1,344.4,725.1,344.4L580,105.4c0,0,0,0-47-68.1c-47.2-68.1-73.1,8.8-73.1,8.8
				L279.7,363.5z"/>
			<path class="st0" d="M208.7,488.8L28.5,806.2c0,0-52.8,61.6,30,67.1c82.6,5.5,82.6,5.5,82.6,5.5l279.6,2.1
				C420.6,881,149.5,759.7,208.7,488.8z"/>
			<path class="st0" d="M982.9,812c-38.2-73.2-38.2-73.2-38.2-73.2l-144-239.6c0,0,37.7,294.4-224.3,385.2l364.8-11.8
				C941.2,872.6,1021.3,885.5,982.9,812z"/>
		</g>
	</g>
</g>
<path class="st0" d="M631.3,373.2c-88.1-19.8-228.6,54.7-375.1,237.4c-39,34.2,53.7,43.1,53.7,43.1c-18.8,60.4,42.1,28.8,42.1,28.8
	c169,93.5,280.1,39.4,304.4,34.2c92.9-19.9-1.4-91.9-1.4-91.9l0,0l2.9-27.1c0,0,56.6-27.1,66.8-93.5
	C727.8,483.8,719.4,393,631.3,373.2"/>
<path class="st1" d="M315.5,692.1c-5-1.6-7.8-4.5-9.9-9.8c-0.9-2.5-1-3.4-1-8.2c0-3.7,0.3-6.8,1-10l2.2-7.8l10.6-4.5
	c51.7-21.5,125.5-40.1,184.5-50.9c36.8-6.8,63.3-9.4,92.2-9.4c19.2,0,32.6,1.2,46.2,4.3c5.6,1.2,16.7,4.6,17.1,5.2
	c0.3,0.4-2.2,23.7-2.4,24c-0.1,0.2-1.3,0-2.6-0.4c-3.9-0.7-47.1-0.2-56.3,0.9c-16.5,1.8-31,3.9-60.2,9.3
	c-58.3,10.5-73.1,13.9-114.4,25.8s-65,20.1-71.6,24.8c-2,1.4-8.2,3.9-13.5,5.5C328.3,693.2,320.4,693.7,315.5,692.1z"/>
<g id="layer1" transform="translate(-263.3116,-222.4164)">
	<g>
		<g class="st2">
			<g class="st2">
				<g>
					<g>
						<defs>
							<path id="SVGID_1_" d="M885.9,627.4l4.5,1.1c0.7,0.2,1.4,0.5,2,0.7c1,0.4,1.9,0.9,2.9,1.5c2.6,1.7,4.8,4.2,6.7,7.3
								c1.9,3,3.4,6.6,4.6,10.6c1.9,5.9,2.9,13,3.4,20.7c0.8,14.6-0.8,31.4-5.4,48.9l-4.5-1.1c4.5-17.3,6.2-34.3,5.4-48.9
								c-0.4-7.7-1.6-14.6-3.4-20.7c-1.2-4-2.7-7.6-4.6-10.6c-1.9-3-4.2-5.6-6.7-7.3c-0.9-0.6-1.9-1.3-2.9-1.5
								C887.3,627.9,886.6,627.7,885.9,627.4z"/>
						</defs>
						<clipPath id="SVGID_2_">
							<use xlink:href="#SVGID_1_"  style="overflow:visible;"/>
						</clipPath>
						<g class="st3">
							<path class="st4" d="M904.8,718.5l-4.5-1.1c1.1-4.2,1.9-8.2,2.8-12.4l4.5,1.1C906.9,710.1,905.9,714.3,904.8,718.5"/>
							<path class="st5" d="M907.6,706.1l-4.5-1.1c1.2-7,2.2-13.7,2.5-20.3l4.5,1.1C909.7,692.3,909,699,907.6,706.1"/>
							<path class="st6" d="M910.1,685.7l-4.5-1.1c0.4-5.7,0.3-11.1,0.1-16.1c-0.4-7.7-1.6-14.6-3.4-20.7c-1.2-4-2.7-7.6-4.6-10.6
								c-1.9-3-4.2-5.6-6.7-7.3c-0.9-0.6-1.9-1.3-2.9-1.5c-0.7-0.2-1.3-0.5-2-0.7l4.5,1.1c0.7,0.2,1.4,0.5,2,0.7
								c1,0.4,1.9,0.9,2.9,1.5c2.6,1.7,4.8,4.2,6.7,7.3c1.9,3,3.4,6.6,4.6,10.6c1.9,5.9,2.9,13,3.4,20.7
								C910.6,674.7,910.5,680.2,910.1,685.7"/>
						</g>
					</g>
				</g>
			</g>
			<g>
				<polygon class="st7" points="907.6,679.8 903,678.6 904.5,672.8 909,674 				"/>
			</g>
			<g class="st2">
				<g>
					<g>
						<defs>
							<path id="SVGID_3_" d="M855.1,781.4l-4.5-1.1c0.3,0,0.7,0.2,1,0.3c0.7,0.1,1.6,0.1,2.3,0.2c2.2,0,4.4-0.3,6.6-1
								c2.8-1,5.9-2.7,8.7-5.1c4.2-3.4,8.4-8.1,12.4-14c7.5-11.1,14.2-26,18.7-43.3l4.5,1.1c-4.5,17.3-11.1,32.2-18.7,43.3
								c-4,5.9-8.2,10.7-12.4,14c-3,2.4-5.9,4.1-8.7,5.1c-2.2,0.9-4.4,1.2-6.6,1c-0.7-0.1-1.6-0.1-2.3-0.2
								C855.7,781.4,855.4,781.4,855.1,781.4z"/>
						</defs>
						<clipPath id="SVGID_4_">
							<use xlink:href="#SVGID_3_"  style="overflow:visible;"/>
						</clipPath>
						<g class="st8">
							<path class="st9" d="M855.1,781.4l-4.5-1.1c0.3,0,0.7,0.2,1,0.3c0.1,0,0.4,0,0.6,0.1l4.5,1.1c-0.1,0-0.4,0-0.6-0.1
								C855.7,781.4,855.4,781.4,855.1,781.4"/>
							<path class="st10" d="M856.7,781.7l-4.5-1.1c0.6,0.1,1.1,0.1,1.7,0.2c1.1,0.1,2.5-0.1,3.6-0.4l4.5,1.1
								c-1.2,0.2-2.5,0.3-3.6,0.4C857.8,781.8,857.2,781.8,856.7,781.7"/>
							<path class="st11" d="M862,781.5l-4.5-1.1c1-0.3,1.9-0.5,3-0.8c2.8-1,5.9-2.7,8.7-5.1c4.2-3.4,8.4-8.1,12.4-14
								c0.7-1,1.3-2,2-3l4.5,1.1c-0.7,1-1.3,2-2,3c-4,5.9-8.2,10.7-12.4,14c-3,2.4-5.9,4.1-8.7,5.1C863.9,781.1,863,781.4,862,781.5
								"/>
							<path class="st10" d="M888.1,758.6l-4.5-1.1c3.1-4.9,5.9-10.4,8.5-16.4l4.5,1.1C894,748.2,891.2,753.9,888.1,758.6"/>
							<path class="st9" d="M896.8,742.2l-4.5-1.1c2.4-5.3,4.4-11.2,6.3-17.3l4.5,1.1C901.2,731,899,736.9,896.8,742.2"/>
							<path class="st4" d="M903,724.9l-4.5-1.1c0.6-2.1,1.3-4.4,1.8-6.5l4.5,1.1C904.3,720.6,903.7,722.9,903,724.9"/>
						</g>
					</g>
				</g>
			</g>
			<g class="st2">
				<g>
					<g>
						<defs>
							<path id="SVGID_5_" d="M888.4,753.2l-4.5-1.1c5.7-9.8,10.6-21.7,14-34.8c3.4-13.3,5.1-26.5,5.1-38.5l4.5,1.1
								c0,12-1.7,25.2-5.1,38.5C898.9,731.5,894.2,743.4,888.4,753.2z"/>
						</defs>
						<clipPath id="SVGID_6_">
							<use xlink:href="#SVGID_5_"  style="overflow:visible;"/>
						</clipPath>
						<g class="st12">
							<path class="st10" d="M888.4,753.2l-4.5-1.1c2.4-3.9,4.5-8.3,6.6-12.8l4.5,1.1C892.9,744.9,890.8,749.2,888.4,753.2"/>
							<path class="st9" d="M894.9,740.3l-4.5-1.1c2.2-5,4.2-10.3,5.8-15.9l4.5,1.1C899.1,729.9,897.1,735.3,894.9,740.3"/>
							<path class="st4" d="M900.8,724.4l-4.5-1.1c0.6-1.9,1.1-4,1.7-6.1c0.9-3.8,1.9-7.5,2.5-11.2l4.5,1.1
								c-0.6,3.7-1.6,7.5-2.5,11.2C901.9,720.4,901.2,722.4,900.8,724.4"/>
							<path class="st5" d="M904.9,707l-4.5-1.1c1.2-6.5,1.9-12.9,2.4-19.1l4.5,1.1C907,694.2,906.1,700.5,904.9,707"/>
							<path class="st6" d="M907.3,688l-4.5-1.1c0.1-2.9,0.2-5.5,0.2-8.2l4.5,1.1C907.5,682.4,907.5,685.3,907.3,688"/>
						</g>
					</g>
				</g>
			</g>
			<g>
				<polygon class="st13" points="888.4,753.2 883.9,751.9 903,678.6 907.6,679.8 				"/>
			</g>
			<g>
				<path class="st14" d="M909,674c0.4,13.5-1.2,29-5.3,44.9c-3.9,15.2-9.8,28.9-16.7,39.5l1.4-5.2c5.7-9.8,10.6-21.7,14-34.8
					c3.4-13.3,5.1-26.5,5.1-38.5L909,674z"/>
			</g>
			<g>
				<polygon class="st7" points="887,758.5 882.5,757.1 883.9,751.9 888.4,753.2 				"/>
			</g>
			<g>
				<path class="st15" d="M906.8,648.9c1.9,5.9,2.9,13,3.4,20.7L909,674l-1.6,5.8l-19.1,73.5l-1.4,5.2l-0.9,3.3
					c-4,5.9-8.2,10.7-12.4,14l0.7-2.4l0.9-3.1L905,656.1l0.9-3.5L906.8,648.9z"/>
			</g>
			<g>
				<polygon class="st16" points="905.9,652.4 901.4,651.3 902.3,647.8 906.8,648.9 				"/>
			</g>
			<g>
				<polygon class="st16" points="905,655.9 900.5,654.8 901.4,651.3 905.9,652.4 				"/>
			</g>
			<g>
				<polygon class="st16" points="875.2,770 870.7,768.9 900.5,654.8 905,655.9 				"/>
			</g>
			<g>
				<polygon class="st16" points="874.3,773.2 869.8,772 870.7,768.9 875.2,770 				"/>
			</g>
			<g class="st2">
				<g>
					<g>
						<defs>
							<path id="SVGID_7_" d="M905,655.9l-4.5-1.1c-1.2-4.4-2.5-8.5-4.4-11.7l4.5,1.1C902.3,647.4,903.8,651.5,905,655.9z"/>
						</defs>
						<clipPath id="SVGID_8_">
							<use xlink:href="#SVGID_7_"  style="overflow:visible;"/>
						</clipPath>
						<g class="st17">
							<path class="st6" d="M905,655.9l-4.5-1.1c-1.2-4.4-2.5-8.5-4.4-11.7l4.5,1.1C902.3,647.4,903.8,651.5,905,655.9"/>
						</g>
					</g>
				</g>
			</g>
			<g>
				<polygon class="st7" points="900.6,644.2 896.1,643.1 896.8,640.3 901.3,641.4 				"/>
			</g>
			<g>
				<polygon class="st16" points="873.7,775.6 869.2,774.5 869.8,772 874.3,773.2 				"/>
			</g>
			<g class="st2">
				<g>
					<g>
						<defs>
							<path id="SVGID_9_" d="M866.3,775.8l-4.5-1.1c3-1.1,5.9-3.2,8.9-5.8l4.5,1.1C872.2,772.8,869.2,774.7,866.3,775.8z"/>
						</defs>
						<clipPath id="SVGID_10_">
							<use xlink:href="#SVGID_9_"  style="overflow:visible;"/>
						</clipPath>
						<g class="st18">
							<path class="st11" d="M866.3,775.8l-4.5-1.1c3-1.1,5.9-3.2,8.9-5.8l4.5,1.1C872.2,772.8,869.2,774.7,866.3,775.8"/>
						</g>
					</g>
				</g>
			</g>
			<g>
				<path class="st19" d="M900.6,644.2c1.9,3.2,3.2,7.3,4.4,11.7L875.2,770c-3,2.8-6.1,4.6-8.9,5.8L900.6,644.2z"/>
			</g>
			<g>
				<polygon class="st13" points="866.3,775.8 861.7,774.7 896.1,643.1 900.6,644.2 				"/>
			</g>
			<g>
				<polygon class="st7" points="865.6,778.4 861.1,777.3 861.7,774.7 866.3,775.8 				"/>
			</g>
			<g>
				<path class="st14" d="M865.6,778.4l0.7-2.6c3-1.1,5.9-3.2,8.9-5.8l-0.9,3.1C871.4,775.6,868.5,777.5,865.6,778.4z"/>
			</g>
			<g>
				<polygon class="st16" points="894.7,634.2 890,632.8 890.9,629.7 895.4,631 				"/>
			</g>
			<g>
				<polygon class="st16" points="894,636.4 889.5,635.1 890,632.8 894.7,634.2 				"/>
			</g>
			<g class="st2">
				<g>
					<g>
						<defs>
							<path id="SVGID_11_" d="M884.8,633l4.5,1.1c0.7,0.2,1.3,0.3,1.8,0.7c1,0.4,1.9,0.9,2.9,1.5l-4.5-1.1
								c-0.9-0.6-1.9-1.3-2.9-1.5C886.1,633.3,885.4,633.1,884.8,633z"/>
						</defs>
						<clipPath id="SVGID_12_">
							<use xlink:href="#SVGID_11_"  style="overflow:visible;"/>
						</clipPath>
						<g class="st20">
							<path class="st6" d="M894,636.4l-4.5-1.1c-0.9-0.6-1.9-1.3-2.9-1.5c-0.6-0.2-1.3-0.5-1.8-0.7l4.5,1.1
								c0.7,0.2,1.3,0.3,1.8,0.7C892.1,635.2,893.1,635.8,894,636.4"/>
						</g>
					</g>
				</g>
			</g>
			<g class="st2">
				<g>
					<g>
						<defs>
							<path id="SVGID_13_" d="M885.3,630.6l4.5,1.1c-0.7-0.2-1.3-0.3-2-0.4l-4.5-1.1C883.9,630.5,884.6,630.5,885.3,630.6z"/>
						</defs>
						<clipPath id="SVGID_14_">
							<use xlink:href="#SVGID_13_"  style="overflow:visible;"/>
						</clipPath>
						<g class="st21">
							<path class="st10" d="M887.8,631.5l-4.5-1.1c0.1,0,0.3,0,0.4,0l4.5,1.1C888.1,631.6,888,631.6,887.8,631.5"/>
							<path class="st9" d="M888.3,631.6l-4.5-1.1c0.6,0.1,1,0.1,1.6,0.3l4.5,1.1C889.3,631.7,888.8,631.6,888.3,631.6"/>
						</g>
					</g>
				</g>
			</g>
			<g class="st2">
				<g>
					<g>
						<defs>
							<path id="SVGID_15_" d="M884.8,633l4.5,1.1c-0.7-0.2-1.4-0.3-2-0.4l-4.5-1.1C883.4,632.7,884.1,632.8,884.8,633z"/>
						</defs>
						<clipPath id="SVGID_16_">
							<use xlink:href="#SVGID_15_"  style="overflow:visible;"/>
						</clipPath>
						<g class="st22">
							<path class="st23" d="M887.2,633.8l-4.5-1.1c0.1,0,0.4,0,0.6,0.1l4.5,1.1C887.6,633.8,887.5,633.8,887.2,633.8"/>
							<path class="st24" d="M887.9,633.9l-4.5-1.1c0.4,0,1,0.1,1.4,0.3l4.5,1.1C888.8,634,888.3,633.9,887.9,633.9"/>
						</g>
					</g>
				</g>
			</g>
			<g>
				<polygon class="st16" points="857.3,776.9 852.8,775.8 889.5,635.1 894,636.4 				"/>
			</g>
			<g>
				<polygon class="st16" points="856.6,779.2 852.1,778 852.8,775.8 857.3,776.9 				"/>
			</g>
			<g>
				<path class="st19" d="M891.1,634.7c1,0.4,1.9,0.9,2.9,1.5l-36.8,140.7c-1-0.1-2-0.5-3-0.8c-1.3-0.5-2.5-1.3-3.5-2.1l36.6-140.2
					C888.6,633.9,889.9,634.2,891.1,634.7z"/>
			</g>
			<g>
				<polygon class="st13" points="850.6,774 846.1,772.8 882.7,632.5 887.2,633.8 				"/>
			</g>
			<g>
				<path class="st14" d="M887.8,631.5c1.3,0.1,2.7,0.4,3.9,1.1c1,0.4,1.9,0.9,2.9,1.5l-0.6,2.3c-0.9-0.6-1.9-1.3-2.9-1.5
					c-1.3-0.5-2.5-0.8-3.9-1.1L887.8,631.5z"/>
			</g>
			<g>
				<polygon class="st7" points="887.2,633.8 882.7,632.5 883.4,630.2 887.8,631.5 				"/>
			</g>
			<g>
				<path class="st15" d="M895.4,631c2.6,1.7,4.8,4.2,6.7,7.3l-0.9,3.1l-0.7,2.8l-34.3,131.6l-0.7,2.6l-0.6,2.3
					c-2.2,0.9-4.4,1.2-6.6,1c-0.7-0.1-1.6-0.1-2.3-0.2l0.6-2.3l0.6-2.3L894,636.2l0.6-2.3L895.4,631z"/>
			</g>
			<g>
				<polygon class="st16" points="856.1,781.5 851.5,780.3 852.1,778 856.6,779.2 				"/>
			</g>
			<g class="st2">
				<g>
					<g>
						<defs>
							<path id="SVGID_17_" d="M887.2,628.3l-4.5-1.1c0.4,0,1,0.1,1.4,0.1l4.5,1.1C888.2,628.2,887.7,628.3,887.2,628.3z"/>
						</defs>
						<clipPath id="SVGID_18_">
							<use xlink:href="#SVGID_17_"  style="overflow:visible;"/>
						</clipPath>
						<g class="st25">
							<path class="st26" d="M887.2,628.3l-4.5-1.1c0.4,0,1,0.1,1.4,0.1l4.5,1.1C888.2,628.2,887.7,628.3,887.2,628.3"/>
						</g>
					</g>
				</g>
			</g>
			<g class="st2">
				<g>
					<g>
						<defs>
							<path id="SVGID_19_" d="M856.1,776.8l-4.5-1.1c0.4,0,0.7,0.2,1.1,0.3l4.5,1.1C856.8,776.9,856.5,776.9,856.1,776.8z"/>
						</defs>
						<clipPath id="SVGID_20_">
							<use xlink:href="#SVGID_19_"  style="overflow:visible;"/>
						</clipPath>
						<g class="st27">
							<path class="st9" d="M856.1,776.8l-4.5-1.1c0.4,0,0.7,0.2,1.1,0.3l4.5,1.1C856.8,776.9,856.5,776.9,856.1,776.8"/>
						</g>
					</g>
				</g>
			</g>
			<g class="st2">
				<g>
					<g>
						<defs>
							<path id="SVGID_21_" d="M856.1,776.8l-4.5-1.1c-0.6-0.2-1.3-0.3-1.8-0.7c-1.3-0.5-2.5-1.3-3.5-2.1l4.5,1.1
								c1.2,0.8,2.3,1.6,3.5,2.1C854.9,776.3,855.6,776.6,856.1,776.8z"/>
						</defs>
						<clipPath id="SVGID_22_">
							<use xlink:href="#SVGID_21_"  style="overflow:visible;"/>
						</clipPath>
						<g class="st28">
							<path class="st29" d="M856.1,776.8l-4.5-1.1c-0.6-0.2-1.3-0.3-1.8-0.7c-1.3-0.5-2.5-1.3-3.5-2.1l4.5,1.1
								c1.2,0.8,2.3,1.6,3.5,2.1C854.9,776.3,855.6,776.6,856.1,776.8"/>
						</g>
					</g>
				</g>
			</g>
			<g class="st2">
				<g>
					<g>
						<defs>
							<path id="SVGID_23_" d="M855.8,779.1l-4.5-1.1c-0.7-0.2-1.4-0.5-2-0.7c-1.3-0.5-2.5-1.3-3.7-2.1l4.5,1.1
								c1.2,0.8,2.3,1.5,3.7,2.1C854.4,778.6,855.1,778.9,855.8,779.1z"/>
						</defs>
						<clipPath id="SVGID_24_">
							<use xlink:href="#SVGID_23_"  style="overflow:visible;"/>
						</clipPath>
						<g class="st30">
							<path class="st6" d="M855.8,779.1l-4.5-1.1c-0.7-0.2-1.4-0.5-2-0.7c-1.3-0.5-2.5-1.3-3.7-2.1l4.5,1.1
								c1.2,0.8,2.3,1.5,3.7,2.1C854.4,778.6,855.1,778.9,855.8,779.1"/>
						</g>
					</g>
				</g>
			</g>
			<g>
				<path class="st14" d="M850.6,774c1.2,0.8,2.3,1.6,3.5,2.1c1,0.4,2,0.7,3,0.8l-0.6,2.3c-1-0.3-2-0.5-3-0.8
					c-1.3-0.5-2.5-1.3-3.7-2.1L850.6,774z"/>
			</g>
			<g>
				<polygon class="st7" points="850.1,776.2 845.6,775.1 846.1,772.8 850.6,774 				"/>
			</g>
			<g class="st2">
				<g>
					<g>
						<defs>
							<path id="SVGID_25_" d="M879.7,629.7l-4.5-1.1c2.5-1,5.2-1.5,7.6-1.4l4.5,1.1C884.7,628,882.2,628.7,879.7,629.7z"/>
						</defs>
						<clipPath id="SVGID_26_">
							<use xlink:href="#SVGID_25_"  style="overflow:visible;"/>
						</clipPath>
						<g class="st31">
							<path class="st32" d="M879.7,629.7l-4.5-1.1c1.4-0.6,2.5-0.8,3.9-1.1l4.5,1.1C882.2,628.7,880.9,629.1,879.7,629.7"/>
							<path class="st26" d="M883.5,628.4l-4.5-1.1c1.3-0.2,2.5-0.3,3.8-0.4l4.5,1.1C886,628.1,884.7,628.2,883.5,628.4"/>
						</g>
					</g>
				</g>
			</g>
			<g>
				<polygon class="st16" points="878.8,633 874.3,631.9 875.2,628.4 879.7,629.7 				"/>
			</g>
			<g>
				<polygon class="st16" points="878.1,635.6 873.6,634.3 874.3,631.9 878.8,633 				"/>
			</g>
			<g class="st2">
				<g>
					<g>
						<defs>
							<path id="SVGID_27_" d="M867.6,638c2-1.6,4-2.8,5.8-3.7l4.5,1.1c-2,0.9-4,2.1-5.8,3.7C870.7,638.9,869.2,638.4,867.6,638z"/>
						</defs>
						<clipPath id="SVGID_28_">
							<use xlink:href="#SVGID_27_"  style="overflow:visible;"/>
						</clipPath>
						<g class="st33">
							<path class="st34" d="M869,641.9l-4.5-1.1c3-2.9,6.1-5,9.1-6.5l4.5,1.1C875.1,636.9,872,639.2,869,641.9"/>
						</g>
					</g>
				</g>
			</g>
			<g>
				<polygon class="st16" points="844,765.8 839.6,764.5 873.6,634.3 878.1,635.6 				"/>
			</g>
			<g>
				<polygon class="st16" points="843.4,768.4 838.9,767.1 839.6,764.5 844,765.8 				"/>
			</g>
			<g class="st2">
				<g>
					<g>
						<defs>
							<path id="SVGID_29_" d="M869.9,638.8l-4.5-1.1c1.3-1.1,2.5-2.1,3.6-2.9c1.7-1.3,3.5-2.2,5.3-2.9l4.5,1.1
								c-1.8,0.7-3.5,1.8-5.3,2.9C872.2,636.7,871,637.6,869.9,638.8z"/>
						</defs>
						<clipPath id="SVGID_30_">
							<use xlink:href="#SVGID_29_"  style="overflow:visible;"/>
						</clipPath>
						<g class="st35">
							<path class="st11" d="M869.9,638.8l-4.5-1.1c1.3-1.1,2.5-2.1,3.6-2.9c1.7-1.3,3.5-2.2,5.3-2.9l4.5,1.1
								c-1.8,0.7-3.5,1.8-5.3,2.9C872.2,636.7,871,637.6,869.9,638.8"/>
						</g>
					</g>
				</g>
			</g>
			<g class="st2">
				<g>
					<g>
						<defs>
							<path id="SVGID_31_" d="M869.9,638.6l-4.5-1.1c1.2-1,2.3-1.9,3.6-2.7l4.5,1.1C872.2,636.7,871.1,637.6,869.9,638.6z"/>
						</defs>
						<clipPath id="SVGID_32_">
							<use xlink:href="#SVGID_31_"  style="overflow:visible;"/>
						</clipPath>
						<g class="st36">
							<path class="st34" d="M869.9,638.6l-4.5-1.1c1.2-1,2.3-1.9,3.6-2.7l4.5,1.1C872.2,636.7,871.1,637.6,869.9,638.6"/>
						</g>
					</g>
				</g>
			</g>
			<g>
				<path class="st19" d="M869.9,638.6c1.2-1,2.3-1.9,3.6-2.7c-1.2,0.8-2.5,1.7-3.6,2.9V638.6z"/>
			</g>
			<g>
				<polygon class="st13" points="869.9,638.8 865.2,637.6 865.4,637.5 869.9,638.6 				"/>
			</g>
			<g>
				<path class="st15" d="M887.2,628.3c0.4,0,1,0.1,1.4,0.1l-0.9,3.1l-0.6,2.3L850.5,774l-0.6,2.3l-0.6,2.3
					c-2.6-1.9-4.8-4.4-6.8-7.8l0.7-2.4l0.7-2.6l34-130.2l0.7-2.6l0.9-3.3C882.2,628.7,884.7,628,887.2,628.3z"/>
			</g>
			<g>
				<polygon class="st16" points="842.8,770.9 838.2,769.6 838.9,767.1 843.4,768.4 				"/>
			</g>
			<g class="st2">
				<g>
					<g>
						<defs>
							<path id="SVGID_33_" d="M849.4,778.7l-4.5-1.1c-2.6-1.9-4.8-4.4-6.8-7.8l4.5,1.1C844.7,774.1,847,776.7,849.4,778.7z"/>
						</defs>
						<clipPath id="SVGID_34_">
							<use xlink:href="#SVGID_33_"  style="overflow:visible;"/>
						</clipPath>
						<g class="st37">
							<path class="st38" d="M849.4,778.7l-4.5-1.1c-2.6-1.9-4.8-4.4-6.8-7.8l4.5,1.1C844.7,774.1,847,776.7,849.4,778.7"/>
						</g>
					</g>
				</g>
			</g>
			<g class="st2">
				<g>
					<g>
						<defs>
							<path id="SVGID_35_" d="M867.6,638C867.6,638,867.8,638,867.6,638c1.6,0.3,3.1,0.8,4.5,1.1c-1.1,0.8-2.2,1.8-3.1,2.7
								l-4.5-1.1C865.6,639.8,866.5,638.8,867.6,638z"/>
						</defs>
						<clipPath id="SVGID_36_">
							<use xlink:href="#SVGID_35_"  style="overflow:visible;"/>
						</clipPath>
						<g class="st39">
							<path class="st34" d="M869,641.9l-4.5-1.1c3-2.9,6.1-5,9.1-6.5l4.5,1.1C875.1,636.9,872,639.2,869,641.9"/>
						</g>
					</g>
				</g>
			</g>
			<g>
				<path class="st14" d="M869.9,638.8c1.3-1.1,2.5-2.1,3.6-2.9c1.7-1.3,3.5-2.2,5.3-2.9l-0.7,2.6c-3,1.3-6.1,3.5-9.1,6.5
					L869.9,638.8z"/>
			</g>
			<g>
				<polygon class="st7" points="869,641.9 864.5,640.8 865.2,637.6 869.9,638.8 				"/>
			</g>
			<g class="st2">
				<g>
					<g>
						<defs>
							<path id="SVGID_37_" d="M835.8,755c1.6,0.3,3,0.8,4.5,1.1c0.9,3.7,2.2,6.8,3.7,9.5l-4.5-1.1
								C838.1,761.9,836.9,758.7,835.8,755z"/>
						</defs>
						<clipPath id="SVGID_38_">
							<use xlink:href="#SVGID_37_"  style="overflow:visible;"/>
						</clipPath>
						<g class="st40">
							<path class="st29" d="M844,765.8l-4.5-1.1c-1.7-3.4-3.2-7.3-4.3-11.9l4.5,1.1C840.8,758.5,842.3,762.4,844,765.8"/>
						</g>
					</g>
				</g>
			</g>
			<g class="st2">
				<g>
					<g>
						<defs>
							<path id="SVGID_39_" d="M835.8,755c-0.2-0.7-0.4-1.6-0.6-2.4l4.5,1.1c0.2,0.7,0.4,1.6,0.6,2.4
								C838.9,755.9,837.4,755.5,835.8,755z"/>
						</defs>
						<clipPath id="SVGID_40_">
							<use xlink:href="#SVGID_39_"  style="overflow:visible;"/>
						</clipPath>
						<g class="st41">
							<path class="st29" d="M844,765.8l-4.5-1.1c-1.7-3.4-3.2-7.3-4.3-11.9l4.5,1.1C840.8,758.5,842.3,762.4,844,765.8"/>
						</g>
					</g>
				</g>
			</g>
			<g>
				<polygon class="st13" points="839.7,754 835.2,752.6 864.5,640.8 869,641.9 				"/>
			</g>
			<g>
				<path class="st14" d="M839.7,754c1.1,4.6,2.5,8.6,4.3,11.9l-0.7,2.6c-1.9-3.2-3.2-6.9-4.6-11.2L839.7,754z"/>
			</g>
			<g>
				<polygon class="st7" points="839,757.1 834.5,756 835.2,752.6 839.7,754 				"/>
			</g>
			<g class="st2">
				<g>
					<g>
						<defs>
							<path id="SVGID_41_" d="M843.4,768.4l-4.5-1.1c-1.9-3.2-3.2-6.9-4.6-11.2l4.5,1.1C840.1,761.5,841.6,765.2,843.4,768.4z"/>
						</defs>
						<clipPath id="SVGID_42_">
							<use xlink:href="#SVGID_41_"  style="overflow:visible;"/>
						</clipPath>
						<g class="st42">
							<path class="st6" d="M843.4,768.4l-4.5-1.1c-1.9-3.2-3.2-6.9-4.6-11.2l4.5,1.1C840.1,761.5,841.6,765.2,843.4,768.4"/>
						</g>
					</g>
				</g>
			</g>
			<g class="st2">
				<g>
					<g>
						<defs>
							<path id="SVGID_43_" d="M853.8,648.2c4-5.9,8.2-10.7,12.5-14.2l4.5,1.1c-4.2,3.5-8.4,8.3-12.5,14.2
								C856.9,649,855.2,648.5,853.8,648.2z"/>
						</defs>
						<clipPath id="SVGID_44_">
							<use xlink:href="#SVGID_43_"  style="overflow:visible;"/>
						</clipPath>
						<g class="st43">
							<path class="st32" d="M858.3,649.3l-4.5-1.1c4-5.9,8.2-10.7,12.5-14.2l4.5,1.1C866.5,638.6,862.3,643.4,858.3,649.3"/>
						</g>
					</g>
				</g>
			</g>
			<g>
				<polygon class="st16" points="857.2,653.8 852.7,652.7 853.8,648.2 858.3,649.3 				"/>
			</g>
			<g>
				<polygon class="st16" points="855.6,659.4 851.1,658.3 852.5,652.9 857.1,654.2 				"/>
			</g>
			<g>
				<polygon class="st16" points="837.2,730.1 832.7,729 851.1,658.3 855.6,659.4 				"/>
			</g>
			<g>
				<polygon class="st16" points="835.8,735.3 831.3,734.2 832.7,729 837.2,730.1 				"/>
			</g>
			<g class="st2">
				<g>
					<g>
						<defs>
							<path id="SVGID_45_" d="M842.3,693.2l-4.5-1.1c3.4-12.7,8.1-24.3,13.4-33.6l4.5,1.1C850.2,668.9,845.6,680.3,842.3,693.2z"/>
						</defs>
						<clipPath id="SVGID_46_">
							<use xlink:href="#SVGID_45_"  style="overflow:visible;"/>
						</clipPath>
						<g class="st44">
							<path class="st45" d="M842.3,693.2l-4.5-1.1c0.5-1.9,1.1-3.8,1.6-5.8l4.5,1.1C843.3,689.2,842.8,691.1,842.3,693.2"/>
							<path class="st24" d="M843.9,687.3l-4.5-1.1c1.7-5.6,3.6-10.9,5.7-15.7l4.5,1.1C847.5,676.5,845.6,681.7,843.9,687.3"/>
							<path class="st23" d="M849.7,671.6l-4.5-1.1c1.9-4.3,3.8-8.4,6.1-12.1l4.5,1.1C853.5,663.2,851.6,667.3,849.7,671.6"/>
						</g>
					</g>
				</g>
			</g>
			<g class="st2">
				<g>
					<g>
						<defs>
							<path id="SVGID_47_" d="M832.7,729c0.1-11.8,1.8-24.5,5-36.9l4.5,1.1c-3.2,12.6-5,25.1-5,36.9
								C835.9,729.8,834.1,729.3,832.7,729z"/>
						</defs>
						<clipPath id="SVGID_48_">
							<use xlink:href="#SVGID_47_"  style="overflow:visible;"/>
						</clipPath>
						<g class="st46">
							<path class="st29" d="M837.2,730.1l-4.5-1.1c0-2.5,0-5,0.3-7.5l4.5,1.1C837.4,725.1,837.3,727.6,837.2,730.1"/>
							<path class="st47" d="M837.5,722.6l-4.5-1.1c0.4-6,1.2-12.2,2.3-18.4l4.5,1.1C838.7,710.4,837.9,716.6,837.5,722.6"/>
							<path class="st45" d="M839.8,704.2l-4.5-1.1c0.6-3.7,1.6-7.4,2.5-11l4.5,1.1C841.2,696.9,840.5,700.5,839.8,704.2"/>
						</g>
					</g>
				</g>
			</g>
			<g class="st2">
				<g>
					<g>
						<defs>
							<path id="SVGID_49_" d="M835.8,735.3l-4.5-1.1c-0.4-13.5,1.3-28.3,5.1-42.8c3.4-12.6,7.9-24.1,13.1-33.5
								c1-1.7,1.9-3.4,2.9-4.9l4.5,1.1c-1,1.5-2,3.2-2.9,4.9c-5.4,9.5-9.9,20.9-13.1,33.5C837.1,707.2,835.4,722.1,835.8,735.3z"/>
						</defs>
						<clipPath id="SVGID_50_">
							<use xlink:href="#SVGID_49_"  style="overflow:visible;"/>
						</clipPath>
						<g class="st48">
							<path class="st6" d="M835.8,735.3l-4.5-1.1c-0.2-4.1-0.1-8.4,0.2-12.7l4.5,1.1C835.8,727.1,835.6,731.4,835.8,735.3"/>
							<path class="st5" d="M836,722.7l-4.5-1.1c0.4-6.2,1.2-12.4,2.4-18.9l4.5,1.1C837.2,710.3,836.5,716.6,836,722.7"/>
							<path class="st4" d="M838.4,703.9l-4.5-1.1c0.6-3.7,1.6-7.5,2.5-11.4c0.5-1.9,1.1-4,1.7-5.9l4.5,1.1
								c-0.6,1.9-1.1,3.8-1.7,5.9C840,696.4,839.1,700.1,838.4,703.9"/>
							<path class="st9" d="M842.5,686.6l-4.5-1.1c1.7-5.7,3.7-11.1,5.9-16.1l4.5,1.1C846.3,675.5,844.3,681.1,842.5,686.6"/>
							<path class="st10" d="M848.5,670.5l-4.5-1.1c1.8-4.1,3.6-7.9,5.7-11.4c0.9-1.5,1.7-3.1,2.6-4.4l4.5,1.1
								c-0.8,1.4-1.7,2.9-2.6,4.4C852.1,662.7,850.2,666.4,848.5,670.5"/>
							<path class="st11" d="M856.7,654.7l-4.5-1.1c0.2-0.2,0.2-0.3,0.3-0.5l4.5,1.1C857,654.4,856.8,654.5,856.7,654.7"/>
						</g>
					</g>
				</g>
			</g>
			<g class="st2">
				<g>
					<g>
						<defs>
							<path id="SVGID_51_" d="M854.1,659.1l-4.5-1.1c1-1.9,1.9-3.6,3-5.3l4.5,1.1C856.1,655.5,855.1,657.2,854.1,659.1z"/>
						</defs>
						<clipPath id="SVGID_52_">
							<use xlink:href="#SVGID_51_"  style="overflow:visible;"/>
						</clipPath>
						<g class="st49">
							<path class="st23" d="M854.1,659.1l-4.5-1.1c1-1.9,1.9-3.6,3-5.3l4.5,1.1C856.1,655.5,855.1,657.2,854.1,659.1"/>
						</g>
					</g>
				</g>
			</g>
			<g class="st2">
				<g>
					<g>
						<defs>
							<path id="SVGID_53_" d="M838.3,759.9l-4.5-1.1c-1-3.1-1.7-6.8-2.3-10.6c-0.6-3.3-0.8-6.7-1.1-10.1l4.5,1.1
								c0.3,3.4,0.5,6.8,1.1,10.1C836.5,753.1,837.3,756.6,838.3,759.9z"/>
						</defs>
						<clipPath id="SVGID_54_">
							<use xlink:href="#SVGID_53_"  style="overflow:visible;"/>
						</clipPath>
						<g class="st50">
							<path class="st38" d="M838.3,759.9l-4.5-1.1c-1-3.1-1.7-6.8-2.3-10.6c-0.6-3.3-0.8-6.7-1.1-10.1l4.5,1.1
								c0.3,3.4,0.5,6.8,1.1,10.1C836.5,753.1,837.3,756.6,838.3,759.9"/>
						</g>
					</g>
				</g>
			</g>
			<g>
				<polygon class="st16" points="834.9,739.2 830.4,737.9 831.3,734.2 835.8,735.3 				"/>
			</g>
			<g>
				<path class="st19" d="M869,641.9c3-2.9,6.1-5,9.1-6.5l-34,130.2c-1.7-3.4-3.2-7.3-4.3-11.9L869,641.9z"/>
			</g>
			<g>
				<path class="st19" d="M842.3,693.2c3.4-12.7,8.1-24.3,13.4-33.6l-18.4,70.5C837.3,718.3,839,705.6,842.3,693.2z"/>
			</g>
			<g class="st2">
				<g>
					<g>
						<defs>
							<path id="SVGID_55_" d="M853.8,787.2l-4.5-1.1c-0.8-0.3-1.5-0.5-2.4-0.8c-9.6-4-16.5-16.4-19.3-34.9
								c-2.7-18.3-1.2-40.2,4.4-61.7c10.5-40.3,32.3-68.5,51.2-67.7c1.3,0.1,2.6,0.2,3.8,0.5l4.5,1.1c-1.3-0.3-2.5-0.6-3.8-0.5
								c-18.8-0.7-40.7,27.4-51.2,67.7c-5.7,21.5-7.2,43.3-4.4,61.6c2.8,18.5,9.6,30.8,19.3,34.9
								C852.3,786.6,853.1,786.9,853.8,787.2z"/>
						</defs>
						<clipPath id="SVGID_56_">
							<use xlink:href="#SVGID_55_"  style="overflow:visible;"/>
						</clipPath>
						<g class="st51">
							<path class="st6" d="M853.8,787.2l-4.5-1.1c-0.8-0.3-1.5-0.5-2.4-0.8c-9.6-4-16.5-16.4-19.3-34.9c-1.3-8.7-1.6-18-1.1-28
								l4.5,1.1c-0.6,9.8-0.3,19.3,1.1,28c2.8,18.5,9.6,30.8,19.3,34.9C852.3,786.6,853.1,786.9,853.8,787.2"/>
							<path class="st5" d="M831.2,723.6l-4.5-1.1c0.4-6.9,1.3-14,2.6-21l4.5,1.1C832.5,709.6,831.6,716.7,831.2,723.6"/>
							<path class="st4" d="M833.8,702.6l-4.5-1.1c0.8-4.2,1.7-8.4,2.8-12.6c0.6-2.3,1.2-4.5,1.9-6.6l4.5,1.1
								c-0.6,2.3-1.3,4.4-1.9,6.6C835.6,694,834.6,698.4,833.8,702.6"/>
							<path class="st9" d="M838.5,683.2L834,682c1.9-6.4,4.1-12.3,6.5-18l4.5,1.1C842.6,670.9,840.4,676.8,838.5,683.2"/>
							<path class="st10" d="M845.1,665.2l-4.5-1.1c2.8-6.4,5.8-12.2,9-17.4l4.5,1.1C850.9,653.1,847.7,658.8,845.1,665.2"/>
							<path class="st11" d="M854.1,648l-4.5-1.1c9-14.3,19.4-23.6,29.3-25.5l4.5,1.1C873.5,624.5,863,633.6,854.1,648"/>
							<path class="st10" d="M883.4,622.5l-4.5-1.1c1.5-0.2,2.9-0.4,4.4-0.3c0.7,0.1,1.3,0.1,2,0.2l4.5,1.1c-0.7-0.1-1.3-0.1-2-0.2
								C886.3,622.1,884.8,622.3,883.4,622.5"/>
							<path class="st9" d="M889.7,622.4l-4.5-1.1c0.6,0.1,1.3,0.3,1.8,0.4l4.5,1.1C891,622.5,890.4,622.5,889.7,622.4"/>
						</g>
					</g>
				</g>
			</g>
			<g>
				<path class="st14" d="M893.9,623.5c-2.1-0.9-4.1-1.3-6.2-1.3c-18.8-0.7-40.7,27.4-51.2,67.7c-5.7,21.5-7.2,43.3-4.4,61.7
					c2.8,18.5,9.6,30.8,19.3,34.9c1.9,0.9,4.1,1.3,6.1,1.3c18.5,0.7,40.3-27.5,50.7-67.8C920,675,913.6,631.9,893.9,623.5z
					 M904.8,718.5c-4.5,17.3-11.1,32.2-18.7,43.3c-4,5.9-8.2,10.7-12.4,14c-3,2.4-5.9,4.1-8.7,5.1c-2.2,0.9-4.4,1.2-6.6,1
					c-0.7-0.1-1.6-0.1-2.3-0.2c-1-0.3-2-0.5-3.1-1c-1.3-0.5-2.5-1.1-3.6-1.9c-2.6-1.9-4.8-4.4-6.8-7.8c-1.9-3-3.4-6.8-4.6-11
					c-1-3.1-1.7-6.8-2.3-10.6c-0.6-3.3-0.8-6.7-1.1-10.1c-0.9-14.8,1-31.4,5.3-47.8c4.3-16.6,10.9-31.2,18.3-42.1
					c4-5.9,8.2-10.7,12.5-14.2c3-2.4,5.9-4.3,8.9-5.4c2.5-1,5.2-1.5,7.6-1.4c0.4,0,1,0.1,1.4,0.1c1.3,0.1,2.5,0.6,3.8,1.1
					c1,0.4,1.9,0.9,2.9,1.5c2.6,1.7,4.8,4.2,6.7,7.3c1.9,3,3.4,6.6,4.6,10.6c1.9,5.9,2.9,13,3.4,20.7
					C911.1,684.2,909.3,701.2,904.8,718.5"/>
			</g>
			<g>
				<path class="st19" d="M907.6,679.8l-19.1,73.5c5.7-9.8,10.6-21.7,14-34.8C905.9,705,907.5,691.7,907.6,679.8z"/>
			</g>
			<g>
				<path class="st14" d="M905,655.9c-1.2-4.4-2.5-8.5-4.4-11.7l0.7-2.8c1.9,3,3.4,6.8,4.6,10.8L905,655.9z"/>
			</g>
			<g>
				<path class="st19" d="M857.2,653.8v0.4c-1,1.5-2,3.2-2.9,4.9C855.1,657.2,856.1,655.5,857.2,653.8z"/>
			</g>
			<g>
				<path class="st14" d="M855.6,659.4c-5.4,9.3-10.1,20.9-13.4,33.6c-3.2,12.6-5,25.1-5,36.9l-1.4,5.4c-0.4-13.5,1.3-28.3,5.1-42.8
					c3.4-12.6,7.9-24.1,13.1-33.5c1-1.7,1.9-3.4,2.9-4.9L855.6,659.4z"/>
			</g>
			<g>
				<path class="st15" d="M870.8,635.1l-0.9,3.5l-0.9,3.5L839.7,754l-0.9,3.3l-0.7,2.6c-1-3.1-1.7-6.8-2.3-10.6
					c-0.6-3.3-0.8-6.7-1.1-10.1l0.9-3.7l1.4-5.4l18.4-70.5l1.4-5.4v-0.4l1.2-4.5C862.3,643.4,866.5,638.6,870.8,635.1z"/>
			</g>
		</g>
	</g>
</g>
</svg>
