<?xml version="1.0" encoding="utf-8"?>
<!-- Generator: Adobe Illustrator 25.0.1, SVG Export Plug-In . SVG Version: 6.00 Build 0)  -->
<svg version="1.1" id="Capa_1" xmlns="http://www.w3.org/2000/svg" xmlns:xlink="http://www.w3.org/1999/xlink" x="0px" y="0px"
	 viewBox="0 0 371 237" style="enable-background:new 0 0 371 237;" xml:space="preserve">
<style type="text/css">
	.st0{stroke:#000000;stroke-width:2;}
	.st1{stroke:#000000;stroke-width:1.673;}
	.st2{fill:#FCFBF5;stroke:#000000;stroke-width:1.431;}
	.st3{enable-background:new    ;}
	.st4{clip-path:url(#SVGID_2_);enable-background:new    ;}
	.st5{fill:#81610F;}
	.st6{fill:#7C5D0E;}
	.st7{fill:#785A0E;}
	.st8{fill:#8E6B10;}
	.st9{clip-path:url(#SVGID_4_);enable-background:new    ;}
	.st10{fill:#85640F;}
	.st11{fill:#8A6810;}
	.st12{fill:#8F6B10;}
	.st13{clip-path:url(#SVGID_6_);enable-background:new    ;}
	.st14{fill:#9D8E0A;}
	.st15{fill:#D39F18;}
	.st16{fill:#EA0007;}
	.st17{fill:#9D0005;}
	.st18{clip-path:url(#SVGID_8_);enable-background:new    ;}
	.st19{clip-path:url(#SVGID_10_);enable-background:new    ;}
	.st20{fill:#EAD30F;}
	.st21{clip-path:url(#SVGID_12_);enable-background:new    ;}
	.st22{clip-path:url(#SVGID_14_);enable-background:new    ;}
	.st23{clip-path:url(#SVGID_16_);enable-background:new    ;}
	.st24{fill:#998A0A;}
	.st25{fill:#948509;}
	.st26{clip-path:url(#SVGID_18_);enable-background:new    ;}
	.st27{fill:#990005;}
	.st28{clip-path:url(#SVGID_20_);enable-background:new    ;}
	.st29{clip-path:url(#SVGID_22_);enable-background:new    ;}
	.st30{fill:#857808;}
	.st31{clip-path:url(#SVGID_24_);enable-background:new    ;}
	.st32{clip-path:url(#SVGID_26_);enable-background:new    ;}
	.st33{fill:#9E0005;}
	.st34{clip-path:url(#SVGID_28_);enable-background:new    ;}
	.st35{fill:#9E8F0A;}
	.st36{clip-path:url(#SVGID_30_);enable-background:new    ;}
	.st37{clip-path:url(#SVGID_32_);enable-background:new    ;}
	.st38{clip-path:url(#SVGID_34_);enable-background:new    ;}
	.st39{fill:#850004;}
	.st40{clip-path:url(#SVGID_36_);enable-background:new    ;}
	.st41{clip-path:url(#SVGID_38_);enable-background:new    ;}
	.st42{clip-path:url(#SVGID_40_);enable-background:new    ;}
	.st43{clip-path:url(#SVGID_42_);enable-background:new    ;}
	.st44{clip-path:url(#SVGID_44_);enable-background:new    ;}
	.st45{clip-path:url(#SVGID_46_);enable-background:new    ;}
	.st46{fill:#8F8109;}
	.st47{clip-path:url(#SVGID_48_);enable-background:new    ;}
	.st48{fill:#8A7C09;}
	.st49{clip-path:url(#SVGID_50_);enable-background:new    ;}
	.st50{clip-path:url(#SVGID_52_);enable-background:new    ;}
	.st51{clip-path:url(#SVGID_54_);enable-background:new    ;}
	.st52{clip-path:url(#SVGID_56_);enable-background:new    ;}
</style>
<g>
	<path class="st0" d="M286.4,154.6l2-15.2c0,0,39.4-15.2,46.5-52.5c2.2-11.5-3.6-62.5-65-73.6C208.5,2.2,110.7,44,8.6,146.6
		C-18.6,165.8,46,170.8,46,170.8C32.9,204.7,75.3,187,75.3,187c117.8,52.5,195.2,22.1,212.1,19.2C352.1,195,286.4,154.6,286.4,154.6
		L286.4,154.6z"/>
	<path class="st1" d="M193.6,217.8c-34.4-1.7-73.6-11.1-110.6-26.8l-7.3-3.2l1.5-0.6c10.4-4.4,36.3-10.2,56.7-14.9
		c17.8-4.1,27.7-5.9,56.9-10.4c41.4-6.3,56.1-7.9,73.4-7.9c10,0,21.2-0.4,23.1,0.5c2.8,1.4,13,9.1,18.2,14.2
		c12.2,12.2,14.3,20.8,6.9,28.1c-4.4,4.3-10.7,7-22,9.4c-2.9,0.6-10,2.2-15.7,3.6c-5.7,1.3-12.4,2.9-15,3.4
		C238.5,217.5,217.1,219,193.6,217.8L193.6,217.8z"/>
	<path class="st2" d="M50.4,191.9c-3.5-0.9-5.4-2.5-6.9-5.5c-0.6-1.4-0.7-1.9-0.7-4.6c0-2.1,0.2-3.8,0.7-5.6l1.5-4.4l7.4-2.5
		c36-12.1,87.4-22.5,128.5-28.6c25.6-3.8,44.1-5.3,64.2-5.3c13.4,0,22.7,0.7,32.2,2.4c3.9,0.7,11.6,2.6,11.9,2.9
		c0.2,0.2-1.5,13.3-1.7,13.5c-0.1,0.1-0.9,0-1.8-0.2c-2.7-0.4-32.8-0.1-39.2,0.5c-11.5,1-21.6,2.2-41.9,5.2
		c-40.6,5.9-50.9,7.8-79.7,14.5c-28.8,6.7-45.3,11.3-49.9,13.9c-1.4,0.8-5.7,2.2-9.4,3.1C59.3,192.5,53.8,192.8,50.4,191.9
		L50.4,191.9z"/>
</g>
<g id="layer1" transform="translate(-263.3116,-222.4164)">
	<g>
		<g class="st3">
			<g class="st3">
				<defs>
					<path id="SVGID_1_" class="st3" d="M533.7,251.8l3.2,0.4c0.5,0.1,1,0.2,1.4,0.3c0.7,0.2,1.4,0.4,2.1,0.7
						c1.9,0.8,3.6,2.1,5.1,3.7c1.5,1.6,2.8,3.5,3.9,5.7c1.7,3.2,2.9,7.1,3.7,11.4c1.5,8.1,1.5,17.6-0.5,27.6l-3.2-0.4
						c2-9.9,2-19.5,0.5-27.6c-0.8-4.3-2.1-8.1-3.7-11.4c-1.1-2.2-2.4-4.1-3.9-5.7c-1.5-1.6-3.3-2.9-5.1-3.7
						c-0.7-0.3-1.4-0.6-2.1-0.7C534.7,252,534.2,251.9,533.7,251.8z"/>
				</defs>
				<clipPath id="SVGID_2_">
					<use xlink:href="#SVGID_1_"  style="overflow:visible;"/>
				</clipPath>
				<g class="st4">
					<path class="st5" d="M552.8,301.7l-3.2-0.4c0.5-2.4,0.8-4.7,1.1-7.1l3.2,0.4C553.7,296.9,553.3,299.3,552.8,301.7"/>
					<path class="st6" d="M553.9,294.6l-3.2-0.4c0.4-4,0.6-7.8,0.4-11.5l3.2,0.4C554.5,286.8,554.4,290.6,553.9,294.6"/>
					<path class="st7" d="M554.3,283.1l-3.2-0.4c-0.1-3.2-0.5-6.2-1-9c-0.8-4.3-2.1-8.1-3.7-11.4c-1.1-2.2-2.4-4.1-3.9-5.7
						c-1.5-1.6-3.3-2.9-5.1-3.7c-0.7-0.3-1.4-0.6-2.1-0.7c-0.5-0.1-0.9-0.2-1.4-0.3l3.2,0.4c0.5,0.1,1,0.2,1.4,0.3
						c0.7,0.2,1.4,0.4,2.1,0.7c1.9,0.8,3.6,2.1,5.1,3.7c1.5,1.6,2.8,3.5,3.9,5.7c1.7,3.2,2.9,7.1,3.7,11.4
						C553.9,276.9,554.2,280,554.3,283.1"/>
				</g>
			</g>
			<g>
				<polygon class="st8" points="552.2,279.9 548.9,279.5 549.6,276.2 552.8,276.6 				"/>
			</g>
			<g class="st3">
				<defs>
					<path id="SVGID_3_" class="st3" d="M522.5,339.5l-3.2-0.4c0.2,0,0.5,0.1,0.7,0.1c0.5,0,1.1,0,1.6,0c1.5-0.1,3-0.4,4.5-0.9
						c1.9-0.7,3.9-1.8,5.7-3.3c2.7-2.1,5.3-5,7.7-8.5c4.5-6.6,8.1-15.3,10.1-25.2l3.2,0.4c-2,9.9-5.6,18.6-10.1,25.2
						c-2.4,3.5-5,6.4-7.7,8.5c-1.9,1.5-3.8,2.6-5.7,3.3c-1.5,0.6-3,0.9-4.5,0.9c-0.5,0-1.1,0-1.6,0
						C522.9,339.5,522.7,339.5,522.5,339.5z"/>
				</defs>
				<clipPath id="SVGID_4_">
					<use xlink:href="#SVGID_3_"  style="overflow:visible;"/>
				</clipPath>
				<g class="st9">
					<path class="st10" d="M522.5,339.5l-3.2-0.4c0.2,0,0.5,0.1,0.7,0.1c0.1,0,0.3,0,0.4,0l3.2,0.4c-0.1,0-0.3,0-0.4,0
						C522.9,339.5,522.7,339.5,522.5,339.5"/>
					<path class="st11" d="M523.6,339.6l-3.2-0.4c0.4,0,0.8,0,1.2,0c0.8,0,1.7-0.2,2.5-0.4l3.2,0.4c-0.8,0.2-1.7,0.3-2.5,0.4
						C524.4,339.6,524,339.6,523.6,339.6"/>
					<path class="st12" d="M527.3,339.2l-3.2-0.4c0.7-0.2,1.3-0.4,2-0.6c1.9-0.7,3.9-1.8,5.7-3.3c2.7-2.1,5.3-5,7.7-8.5
						c0.4-0.6,0.8-1.2,1.2-1.8l3.2,0.4c-0.4,0.6-0.8,1.2-1.2,1.8c-2.4,3.5-5,6.4-7.7,8.5c-1.9,1.5-3.8,2.6-5.7,3.3
						C528.6,338.9,528,339.1,527.3,339.2"/>
					<path class="st11" d="M543.9,325l-3.2-0.4c1.8-2.9,3.4-6.1,4.8-9.6l3.2,0.4C547.3,318.9,545.7,322.2,543.9,325"/>
					<path class="st10" d="M548.8,315.4l-3.2-0.4c1.3-3.1,2.3-6.5,3.2-10l3.2,0.4C551.1,308.9,550,312.3,548.8,315.4"/>
					<path class="st5" d="M552,305.4l-3.2-0.4c0.3-1.2,0.6-2.5,0.8-3.7l3.2,0.4C552.6,302.9,552.3,304.2,552,305.4"/>
				</g>
			</g>
			<g class="st3">
				<defs>
					<path id="SVGID_5_" class="st3" d="M543.7,322l-3.2-0.4c3.3-5.8,5.9-12.7,7.4-20.2c1.5-7.6,1.8-15.1,1-21.8l3.2,0.4
						c0.8,6.7,0.5,14.2-1,21.8C549.6,309.3,547.1,316.2,543.7,322z"/>
				</defs>
				<clipPath id="SVGID_6_">
					<use xlink:href="#SVGID_5_"  style="overflow:visible;"/>
				</clipPath>
				<g class="st13">
					<path class="st11" d="M543.7,322l-3.2-0.4c1.4-2.3,2.6-4.9,3.7-7.5l3.2,0.4C546.3,317.1,545.1,319.6,543.7,322"/>
					<path class="st10" d="M547.4,314.4l-3.2-0.4c1.2-2.9,2.2-6,3-9.2l3.2,0.4C549.6,308.4,548.6,311.5,547.4,314.4"/>
					<path class="st5" d="M550.4,305.2l-3.2-0.4c0.3-1.1,0.5-2.3,0.8-3.5c0.4-2.2,0.8-4.3,1-6.4l3.2,0.4c-0.2,2.1-0.6,4.3-1,6.4
						C550.9,302.9,550.6,304.1,550.4,305.2"/>
					<path class="st6" d="M552.1,295.3l-3.2-0.4c0.4-3.7,0.5-7.3,0.4-10.8l3.2,0.4C552.7,288,552.5,291.6,552.1,295.3"/>
					<path class="st7" d="M552.5,284.5l-3.2-0.4c-0.1-1.6-0.2-3.1-0.4-4.6l3.2,0.4C552.3,281.4,552.5,283,552.5,284.5"/>
				</g>
			</g>
			<g>
				<polygon class="st14" points="543.7,322 540.5,321.5 548.9,279.5 552.2,279.9 				"/>
			</g>
			<g>
				<path class="st15" d="M552.8,276.6c1.2,7.5,1.1,16.3-0.7,25.4c-1.7,8.7-4.9,16.7-9,23l0.6-3c3.3-5.8,5.9-12.7,7.4-20.2
					c1.5-7.6,1.8-15.1,1-21.8L552.8,276.6z"/>
			</g>
			<g>
				<polygon class="st8" points="543.1,325 539.9,324.5 540.5,321.5 543.7,322 				"/>
			</g>
			<g>
				<path class="st16" d="M549.6,262.7c1.7,3.2,2.9,7.1,3.7,11.4l-0.5,2.5l-0.7,3.3l-8.4,42.1l-0.6,3l-0.4,1.9
					c-2.4,3.5-5,6.4-7.7,8.5l0.3-1.4l0.4-1.8l13.1-65.4l0.4-2L549.6,262.7z"/>
			</g>
			<g>
				<polygon class="st17" points="549.2,264.7 546,264.3 546.4,262.3 549.6,262.7 				"/>
			</g>
			<g>
				<polygon class="st17" points="548.8,266.7 545.6,266.3 546,264.3 549.2,264.7 				"/>
			</g>
			<g>
				<polygon class="st17" points="535.7,332.1 532.5,331.7 545.6,266.3 548.8,266.7 				"/>
			</g>
			<g>
				<polygon class="st17" points="535.3,333.9 532.1,333.5 532.5,331.7 535.7,332.1 				"/>
			</g>
			<g class="st3">
				<defs>
					<path id="SVGID_7_" class="st3" d="M548.8,266.7l-3.2-0.4c-1.1-2.4-2.3-4.6-3.8-6.3l3.2,0.4
						C546.4,262.1,547.7,264.3,548.8,266.7z"/>
				</defs>
				<clipPath id="SVGID_8_">
					<use xlink:href="#SVGID_7_"  style="overflow:visible;"/>
				</clipPath>
				<g class="st18">
					<path class="st7" d="M548.8,266.7l-3.2-0.4c-1.1-2.4-2.3-4.6-3.8-6.3l3.2,0.4C546.4,262.1,547.7,264.3,548.8,266.7"/>
				</g>
			</g>
			<g>
				<polygon class="st8" points="545,260.4 541.8,260 542.1,258.4 545.3,258.8 				"/>
			</g>
			<g>
				<polygon class="st17" points="535,335.3 531.8,334.9 532.1,333.5 535.3,333.9 				"/>
			</g>
			<g class="st3">
				<defs>
					<path id="SVGID_9_" class="st3" d="M529.9,335.8l-3.2-0.4c2-0.8,3.9-2.1,5.8-3.7l3.2,0.4C533.8,333.8,531.8,335,529.9,335.8z"
						/>
				</defs>
				<clipPath id="SVGID_10_">
					<use xlink:href="#SVGID_9_"  style="overflow:visible;"/>
				</clipPath>
				<g class="st19">
					<path class="st12" d="M529.9,335.8l-3.2-0.4c2-0.8,3.9-2.1,5.8-3.7l3.2,0.4C533.8,333.8,531.8,335,529.9,335.8"/>
				</g>
			</g>
			<g>
				<path class="st20" d="M545,260.4c1.5,1.7,2.7,3.9,3.8,6.3l-13.1,65.4c-1.9,1.7-3.9,2.9-5.8,3.7L545,260.4z"/>
			</g>
			<g>
				<polygon class="st14" points="529.9,335.8 526.6,335.4 541.8,260 545,260.4 				"/>
			</g>
			<g>
				<polygon class="st8" points="529.6,337.3 526.4,336.9 526.6,335.4 529.9,335.8 				"/>
			</g>
			<g>
				<path class="st15" d="M529.6,337.3l0.3-1.5c2-0.8,3.9-2.1,5.8-3.7l-0.4,1.8C533.4,335.4,531.5,336.6,529.6,337.3z"/>
			</g>
			<g>
				<polygon class="st17" points="540.2,255.1 536.9,254.6 537.3,252.8 540.5,253.3 				"/>
			</g>
			<g>
				<polygon class="st17" points="539.9,256.4 536.7,255.9 536.9,254.6 540.2,255.1 				"/>
			</g>
			<g class="st3">
				<defs>
					<path id="SVGID_11_" class="st3" d="M533.3,255l3.2,0.4c0.5,0.1,0.9,0.1,1.3,0.3c0.7,0.2,1.4,0.4,2.1,0.7l-3.2-0.4
						c-0.7-0.3-1.4-0.6-2.1-0.7C534.2,255.1,533.7,255,533.3,255z"/>
				</defs>
				<clipPath id="SVGID_12_">
					<use xlink:href="#SVGID_11_"  style="overflow:visible;"/>
				</clipPath>
				<g class="st21">
					<path class="st7" d="M539.9,256.4l-3.2-0.4c-0.7-0.3-1.4-0.6-2.1-0.7c-0.4-0.1-0.9-0.2-1.3-0.3l3.2,0.4
						c0.5,0.1,0.9,0.1,1.3,0.3C538.5,255.8,539.2,256.1,539.9,256.4"/>
				</g>
			</g>
			<g class="st3">
				<defs>
					<path id="SVGID_13_" class="st3" d="M533.5,253.6l3.2,0.4c-0.5-0.1-0.9-0.1-1.4-0.1l-3.2-0.4
						C532.5,253.6,533,253.6,533.5,253.6z"/>
				</defs>
				<clipPath id="SVGID_14_">
					<use xlink:href="#SVGID_13_"  style="overflow:visible;"/>
				</clipPath>
				<g class="st22">
					<path class="st11" d="M535.3,254l-3.2-0.4c0.1,0,0.2,0,0.3,0l3.2,0.4C535.5,254,535.4,254,535.3,254"/>
					<path class="st10" d="M535.6,254l-3.2-0.4c0.4,0,0.7,0,1.1,0.1l3.2,0.4C536.3,254,536,254,535.6,254"/>
				</g>
			</g>
			<g class="st3">
				<defs>
					<path id="SVGID_15_" class="st3" d="M533.3,255l3.2,0.4c-0.5-0.1-1-0.1-1.4-0.1l-3.2-0.4C532.3,254.9,532.8,254.9,533.3,255z"
						/>
				</defs>
				<clipPath id="SVGID_16_">
					<use xlink:href="#SVGID_15_"  style="overflow:visible;"/>
				</clipPath>
				<g class="st23">
					<path class="st24" d="M535,255.3l-3.2-0.4c0.1,0,0.3,0,0.4,0l3.2,0.4C535.3,255.3,535.2,255.3,535,255.3"/>
					<path class="st25" d="M535.5,255.3l-3.2-0.4c0.3,0,0.7,0,1,0.1l3.2,0.4C536.1,255.3,535.8,255.3,535.5,255.3"/>
				</g>
			</g>
			<g>
				<polygon class="st17" points="523.7,336.9 520.5,336.5 536.7,255.9 539.9,256.4 				"/>
			</g>
			<g>
				<polygon class="st17" points="523.4,338.2 520.2,337.8 520.5,336.5 523.7,336.9 				"/>
			</g>
			<g>
				<path class="st20" d="M537.8,255.6c0.7,0.2,1.4,0.4,2.1,0.7l-16.2,80.6c-0.7,0-1.4-0.2-2.1-0.3c-0.9-0.2-1.8-0.6-2.6-1
					l16.1-80.3C536,255.3,536.9,255.4,537.8,255.6z"/>
			</g>
			<g>
				<polygon class="st14" points="518.9,335.6 515.7,335.2 531.8,254.8 535,255.3 				"/>
			</g>
			<g>
				<path class="st15" d="M535.3,254c0.9,0,1.9,0.1,2.8,0.4c0.7,0.2,1.4,0.4,2.1,0.7l-0.3,1.3c-0.7-0.3-1.4-0.6-2.1-0.7
					c-0.9-0.2-1.8-0.3-2.8-0.4L535.3,254z"/>
			</g>
			<g>
				<polygon class="st8" points="535,255.3 531.8,254.8 532.1,253.5 535.3,254 				"/>
			</g>
			<g>
				<path class="st16" d="M540.5,253.3c1.9,0.8,3.6,2.1,5.1,3.7l-0.4,1.8l-0.3,1.6l-15.1,75.4l-0.3,1.5l-0.3,1.3
					c-1.5,0.6-3,0.9-4.5,0.9c-0.5,0-1.1,0-1.6,0l0.3-1.3l0.3-1.3l16.2-80.6l0.3-1.3L540.5,253.3z"/>
			</g>
			<g>
				<polygon class="st17" points="523.2,339.5 519.9,339.1 520.2,337.8 523.4,338.2 				"/>
			</g>
			<g class="st3">
				<defs>
					<path id="SVGID_17_" class="st3" d="M534.6,252.2l-3.2-0.4c0.3,0,0.7,0,1,0l3.2,0.4C535.3,252.1,535,252.2,534.6,252.2z"/>
				</defs>
				<clipPath id="SVGID_18_">
					<use xlink:href="#SVGID_17_"  style="overflow:visible;"/>
				</clipPath>
				<g class="st26">
					<path class="st27" d="M534.6,252.2l-3.2-0.4c0.3,0,0.7,0,1,0l3.2,0.4C535.3,252.1,535,252.2,534.6,252.2"/>
				</g>
			</g>
			<g class="st3">
				<defs>
					<path id="SVGID_19_" class="st3" d="M522.9,336.9l-3.2-0.4c0.3,0,0.5,0.1,0.8,0.1l3.2,0.4C523.4,336.9,523.2,336.9,522.9,336.9
						z"/>
				</defs>
				<clipPath id="SVGID_20_">
					<use xlink:href="#SVGID_19_"  style="overflow:visible;"/>
				</clipPath>
				<g class="st28">
					<path class="st10" d="M522.9,336.9l-3.2-0.4c0.3,0,0.5,0.1,0.8,0.1l3.2,0.4C523.4,336.9,523.2,336.9,522.9,336.9"/>
				</g>
			</g>
			<g class="st3">
				<defs>
					<path id="SVGID_21_" class="st3" d="M522.9,336.9l-3.2-0.4c-0.4-0.1-0.9-0.1-1.3-0.3c-0.9-0.2-1.8-0.6-2.6-1l3.2,0.4
						c0.9,0.4,1.7,0.8,2.6,1C522,336.7,522.5,336.8,522.9,336.9z"/>
				</defs>
				<clipPath id="SVGID_22_">
					<use xlink:href="#SVGID_21_"  style="overflow:visible;"/>
				</clipPath>
				<g class="st29">
					<path class="st30" d="M522.9,336.9l-3.2-0.4c-0.4-0.1-0.9-0.1-1.3-0.3c-0.9-0.2-1.8-0.6-2.6-1l3.2,0.4c0.9,0.4,1.7,0.8,2.6,1
						C522,336.7,522.5,336.8,522.9,336.9"/>
				</g>
			</g>
			<g class="st3">
				<defs>
					<path id="SVGID_23_" class="st3" d="M522.8,338.2l-3.2-0.4c-0.5-0.1-1-0.2-1.4-0.3c-0.9-0.2-1.8-0.6-2.7-1l3.2,0.4
						c0.9,0.4,1.7,0.7,2.7,1C521.8,338,522.3,338.1,522.8,338.2z"/>
				</defs>
				<clipPath id="SVGID_24_">
					<use xlink:href="#SVGID_23_"  style="overflow:visible;"/>
				</clipPath>
				<g class="st31">
					<path class="st7" d="M522.8,338.2l-3.2-0.4c-0.5-0.1-1-0.2-1.4-0.3c-0.9-0.2-1.8-0.6-2.7-1l3.2,0.4c0.9,0.4,1.7,0.7,2.7,1
						C521.8,338,522.3,338.1,522.8,338.2"/>
				</g>
			</g>
			<g>
				<path class="st15" d="M518.9,335.6c0.9,0.4,1.7,0.8,2.6,1c0.7,0.2,1.4,0.3,2.1,0.3l-0.3,1.3c-0.7-0.1-1.4-0.2-2.1-0.3
					c-0.9-0.2-1.8-0.6-2.7-1L518.9,335.6z"/>
			</g>
			<g>
				<polygon class="st8" points="518.7,336.9 515.5,336.5 515.7,335.2 518.9,335.6 				"/>
			</g>
			<g class="st3">
				<defs>
					<path id="SVGID_25_" class="st3" d="M529.5,253.4l-3.2-0.4c1.7-0.7,3.5-1.1,5.2-1.2l3.2,0.4
						C532.9,252.2,531.2,252.7,529.5,253.4z"/>
				</defs>
				<clipPath id="SVGID_26_">
					<use xlink:href="#SVGID_25_"  style="overflow:visible;"/>
				</clipPath>
				<g class="st32">
					<path class="st33" d="M529.5,253.4l-3.2-0.4c0.9-0.4,1.7-0.6,2.6-0.8l3.2,0.4C531.2,252.7,530.3,253,529.5,253.4"/>
					<path class="st27" d="M532.1,252.5l-3.2-0.4c0.9-0.2,1.7-0.3,2.6-0.4l3.2,0.4C533.8,252.2,532.9,252.3,532.1,252.5"/>
				</g>
			</g>
			<g>
				<polygon class="st17" points="529.1,255.3 525.9,254.9 526.3,252.9 529.5,253.4 				"/>
			</g>
			<g>
				<polygon class="st17" points="528.8,256.8 525.6,256.3 525.9,254.9 529.1,255.3 				"/>
			</g>
			<g class="st3">
				<defs>
					<path id="SVGID_27_" class="st3" d="M521.7,258.7c1.3-1,2.6-1.8,3.8-2.4l3.2,0.4c-1.3,0.6-2.6,1.4-3.8,2.4
						C523.9,259,522.8,258.8,521.7,258.7z"/>
				</defs>
				<clipPath id="SVGID_28_">
					<use xlink:href="#SVGID_27_"  style="overflow:visible;"/>
				</clipPath>
				<g class="st34">
					<path class="st35" d="M522.9,260.8l-3.2-0.4c1.9-1.8,3.9-3.1,5.9-4.1l3.2,0.4C526.8,257.7,524.8,259.1,522.9,260.8"/>
				</g>
			</g>
			<g>
				<polygon class="st17" points="513.8,331.4 510.6,330.9 525.6,256.3 528.8,256.8 				"/>
			</g>
			<g>
				<polygon class="st17" points="513.5,332.9 510.3,332.4 510.6,330.9 513.8,331.4 				"/>
			</g>
			<g class="st3">
				<defs>
					<path id="SVGID_29_" class="st3" d="M523.3,259l-3.2-0.4c0.8-0.7,1.6-1.3,2.3-1.8c1.1-0.8,2.3-1.4,3.5-1.9l3.2,0.4
						c-1.2,0.5-2.3,1.2-3.5,1.9C524.8,257.7,524,258.3,523.3,259z"/>
				</defs>
				<clipPath id="SVGID_30_">
					<use xlink:href="#SVGID_29_"  style="overflow:visible;"/>
				</clipPath>
				<g class="st36">
					<path class="st12" d="M523.3,259l-3.2-0.4c0.8-0.7,1.6-1.3,2.3-1.8c1.1-0.8,2.3-1.4,3.5-1.9l3.2,0.4c-1.2,0.5-2.3,1.2-3.5,1.9
						C524.8,257.7,524,258.3,523.3,259"/>
				</g>
			</g>
			<g class="st3">
				<defs>
					<path id="SVGID_31_" class="st3" d="M523.3,258.9l-3.2-0.4c0.8-0.6,1.5-1.2,2.3-1.7l3.2,0.4
						C524.8,257.7,524.1,258.3,523.3,258.9z"/>
				</defs>
				<clipPath id="SVGID_32_">
					<use xlink:href="#SVGID_31_"  style="overflow:visible;"/>
				</clipPath>
				<g class="st37">
					<path class="st35" d="M523.3,258.9l-3.2-0.4c0.8-0.6,1.5-1.2,2.3-1.7l3.2,0.4C524.8,257.7,524.1,258.3,523.3,258.9"/>
				</g>
			</g>
			<g>
				<path class="st20" d="M523.3,258.9c0.8-0.6,1.5-1.2,2.3-1.7c-0.8,0.5-1.6,1.1-2.3,1.8L523.3,258.9z"/>
			</g>
			<g>
				<polygon class="st14" points="523.3,259 520,258.6 520.1,258.5 523.3,258.9 				"/>
			</g>
			<g>
				<path class="st16" d="M534.6,252.2c0.3,0,0.7,0,1,0l-0.4,1.8l-0.3,1.3l-16.1,80.3l-0.3,1.3l-0.3,1.3c-1.9-0.9-3.6-2.2-5.2-4
					l0.3-1.4l0.3-1.5l15-74.6l0.3-1.5l0.4-1.9C531.2,252.7,532.9,252.2,534.6,252.2z"/>
			</g>
			<g>
				<polygon class="st17" points="513.3,334.3 510,333.8 510.3,332.4 513.5,332.9 				"/>
			</g>
			<g class="st3">
				<defs>
					<path id="SVGID_33_" class="st3" d="M518.4,338.3l-3.2-0.4c-1.9-0.9-3.6-2.2-5.2-4l3.2,0.4C514.8,336,516.6,337.3,518.4,338.3z
						"/>
				</defs>
				<clipPath id="SVGID_34_">
					<use xlink:href="#SVGID_33_"  style="overflow:visible;"/>
				</clipPath>
				<g class="st38">
					<path class="st39" d="M518.4,338.3l-3.2-0.4c-1.9-0.9-3.6-2.2-5.2-4l3.2,0.4C514.8,336,516.6,337.3,518.4,338.3"/>
				</g>
			</g>
			<g class="st3">
				<defs>
					<path id="SVGID_35_" class="st3" d="M521.7,258.7C521.7,258.7,521.8,258.7,521.7,258.7c1.1,0.1,2.2,0.3,3.2,0.4
						c-0.7,0.5-1.4,1.1-2,1.7l-3.2-0.4C520.4,259.8,521,259.2,521.7,258.7z"/>
				</defs>
				<clipPath id="SVGID_36_">
					<use xlink:href="#SVGID_35_"  style="overflow:visible;"/>
				</clipPath>
				<g class="st40">
					<path class="st35" d="M522.9,260.8l-3.2-0.4c1.9-1.8,3.9-3.1,5.9-4.1l3.2,0.4C526.8,257.7,524.8,259.1,522.9,260.8"/>
				</g>
			</g>
			<g>
				<path class="st15" d="M523.3,259c0.8-0.7,1.6-1.3,2.3-1.8c1.1-0.8,2.3-1.4,3.5-1.9l-0.3,1.5c-2,0.9-4,2.3-5.9,4.1L523.3,259z"/>
			</g>
			<g>
				<polygon class="st8" points="522.9,260.8 519.7,260.4 520,258.6 523.3,259 				"/>
			</g>
			<g class="st3">
				<defs>
					<path id="SVGID_37_" class="st3" d="M507.4,325.8c1.1,0.1,2.1,0.3,3.2,0.4c0.9,2,2,3.7,3.2,5.1l-3.2-0.4
						C509.4,329.5,508.4,327.8,507.4,325.8z"/>
				</defs>
				<clipPath id="SVGID_38_">
					<use xlink:href="#SVGID_37_"  style="overflow:visible;"/>
				</clipPath>
				<g class="st41">
					<path class="st30" d="M513.8,331.4l-3.2-0.4c-1.4-1.8-2.7-3.9-3.8-6.4l3.2,0.4C511.1,327.5,512.4,329.6,513.8,331.4"/>
				</g>
			</g>
			<g class="st3">
				<defs>
					<path id="SVGID_39_" class="st3" d="M507.4,325.8c-0.2-0.4-0.4-0.9-0.6-1.3l3.2,0.4c0.2,0.4,0.4,0.9,0.6,1.3
						C509.6,326.1,508.5,326,507.4,325.8z"/>
				</defs>
				<clipPath id="SVGID_40_">
					<use xlink:href="#SVGID_39_"  style="overflow:visible;"/>
				</clipPath>
				<g class="st42">
					<path class="st30" d="M513.8,331.4l-3.2-0.4c-1.4-1.8-2.7-3.9-3.8-6.4l3.2,0.4C511.1,327.5,512.4,329.6,513.8,331.4"/>
				</g>
			</g>
			<g>
				<polygon class="st14" points="510,325 506.8,324.5 519.7,260.4 522.9,260.8 				"/>
			</g>
			<g>
				<path class="st15" d="M510,325c1.1,2.5,2.3,4.7,3.8,6.4l-0.3,1.5c-1.5-1.7-2.7-3.7-3.9-6L510,325z"/>
			</g>
			<g>
				<polygon class="st8" points="509.7,326.8 506.5,326.4 506.8,324.5 510,325 				"/>
			</g>
			<g class="st3">
				<defs>
					<path id="SVGID_41_" class="st3" d="M513.5,332.9l-3.2-0.4c-1.5-1.7-2.7-3.7-3.9-6l3.2,0.4
						C510.8,329.2,512.1,331.2,513.5,332.9z"/>
				</defs>
				<clipPath id="SVGID_42_">
					<use xlink:href="#SVGID_41_"  style="overflow:visible;"/>
				</clipPath>
				<g class="st43">
					<path class="st7" d="M513.5,332.9l-3.2-0.4c-1.5-1.7-2.7-3.7-3.9-6l3.2,0.4C510.8,329.2,512.1,331.2,513.5,332.9"/>
				</g>
			</g>
			<g class="st3">
				<defs>
					<path id="SVGID_43_" class="st3" d="M512.8,265.1c2.4-3.5,5-6.4,7.7-8.6l3.2,0.4c-2.7,2.2-5.3,5.1-7.7,8.6
						C515,265.4,513.8,265.2,512.8,265.1z"/>
				</defs>
				<clipPath id="SVGID_44_">
					<use xlink:href="#SVGID_43_"  style="overflow:visible;"/>
				</clipPath>
				<g class="st44">
					<path class="st33" d="M516,265.5l-3.2-0.4c2.4-3.5,5-6.4,7.7-8.6l3.2,0.4C521,259.1,518.4,262,516,265.5"/>
				</g>
			</g>
			<g>
				<polygon class="st17" points="515.5,268.1 512.3,267.7 512.8,265.1 516,265.5 				"/>
			</g>
			<g>
				<polygon class="st17" points="514.8,271.3 511.6,270.9 512.2,267.8 515.5,268.3 				"/>
			</g>
			<g>
				<polygon class="st17" points="506.7,311.8 503.5,311.4 511.6,270.9 514.8,271.3 				"/>
			</g>
			<g>
				<polygon class="st17" points="506.1,314.8 502.9,314.4 503.5,311.4 506.7,311.8 				"/>
			</g>
			<g class="st3">
				<defs>
					<path id="SVGID_45_" class="st3" d="M507.8,290.9l-3.2-0.4c1.5-7.3,4-14,7.1-19.5l3.2,0.4C511.7,276.9,509.2,283.5,507.8,290.9
						z"/>
				</defs>
				<clipPath id="SVGID_46_">
					<use xlink:href="#SVGID_45_"  style="overflow:visible;"/>
				</clipPath>
				<g class="st45">
					<path class="st46" d="M507.8,290.9l-3.2-0.4c0.2-1.1,0.5-2.2,0.7-3.3l3.2,0.4C508.2,288.6,508,289.7,507.8,290.9"/>
					<path class="st25" d="M508.5,287.5l-3.2-0.4c0.8-3.2,1.8-6.3,2.9-9.1l3.2,0.4C510.3,281.3,509.3,284.3,508.5,287.5"/>
					<path class="st24" d="M511.5,278.4l-3.2-0.4c1-2.5,2.1-4.9,3.4-7.1l3.2,0.4C513.6,273.5,512.5,275.9,511.5,278.4"/>
				</g>
			</g>
			<g class="st3">
				<defs>
					<path id="SVGID_47_" class="st3" d="M503.5,311.4c-0.7-6.6-0.4-13.8,1-20.9l3.2,0.4c-1.4,7.2-1.8,14.3-1,20.9
						C505.8,311.7,504.5,311.5,503.5,311.4z"/>
				</defs>
				<clipPath id="SVGID_48_">
					<use xlink:href="#SVGID_47_"  style="overflow:visible;"/>
				</clipPath>
				<g class="st47">
					<path class="st30" d="M506.7,311.8l-3.2-0.4c-0.2-1.4-0.3-2.8-0.3-4.2l3.2,0.4C506.5,309,506.6,310.4,506.7,311.8"/>
					<path class="st48" d="M506.4,307.6l-3.2-0.4c-0.1-3.4,0-6.9,0.4-10.4l3.2,0.4C506.4,300.7,506.3,304.2,506.4,307.6"/>
					<path class="st46" d="M506.8,297.2l-3.2-0.4c0.2-2.1,0.6-4.2,1-6.3l3.2,0.4C507.3,293,507,295.1,506.8,297.2"/>
				</g>
			</g>
			<g class="st3">
				<defs>
					<path id="SVGID_49_" class="st3" d="M506.1,314.8l-3.2-0.4c-1.2-7.5-1-15.9,0.7-24.2c1.5-7.2,3.9-13.9,6.9-19.4
						c0.6-1,1.1-2,1.7-2.9l3.2,0.4c-0.6,0.9-1.2,1.9-1.7,2.9c-3.1,5.6-5.5,12.2-6.9,19.4C505.1,299,504.9,307.4,506.1,314.8z"/>
				</defs>
				<clipPath id="SVGID_50_">
					<use xlink:href="#SVGID_49_"  style="overflow:visible;"/>
				</clipPath>
				<g class="st49">
					<path class="st7" d="M506.1,314.8l-3.2-0.4c-0.4-2.3-0.6-4.7-0.7-7.1l3.2,0.4C505.5,310.2,505.7,312.6,506.1,314.8"/>
					<path class="st6" d="M505.4,307.7l-3.2-0.4c-0.1-3.5,0-7,0.4-10.7l3.2,0.4C505.4,300.7,505.3,304.3,505.4,307.7"/>
					<path class="st5" d="M505.8,297.1l-3.2-0.4c0.2-2.1,0.6-4.3,1-6.5c0.2-1.1,0.5-2.3,0.8-3.4l3.2,0.4c-0.3,1.1-0.5,2.2-0.8,3.4
						C506.4,292.8,506,294.9,505.8,297.1"/>
					<path class="st10" d="M507.5,287.2l-3.2-0.4c0.8-3.3,1.8-6.4,3-9.3l3.2,0.4C509.4,280.8,508.4,284,507.5,287.2"/>
					<path class="st11" d="M510.6,277.9l-3.2-0.4c1-2.4,2-4.6,3.2-6.7c0.5-0.9,1-1.8,1.5-2.6l3.2,0.4c-0.5,0.8-1,1.7-1.5,2.6
						C512.6,273.3,511.5,275.5,510.6,277.9"/>
					<path class="st12" d="M515.2,268.6l-3.2-0.4c0.1-0.1,0.1-0.2,0.2-0.3l3.2,0.4C515.4,268.4,515.3,268.5,515.2,268.6"/>
				</g>
			</g>
			<g class="st3">
				<defs>
					<path id="SVGID_51_" class="st3" d="M513.7,271.2l-3.2-0.4c0.6-1.1,1.1-2.1,1.7-3.1l3.2,0.4
						C514.9,269.1,514.3,270.1,513.7,271.2z"/>
				</defs>
				<clipPath id="SVGID_52_">
					<use xlink:href="#SVGID_51_"  style="overflow:visible;"/>
				</clipPath>
				<g class="st50">
					<path class="st24" d="M513.7,271.2l-3.2-0.4c0.6-1.1,1.1-2.1,1.7-3.1l3.2,0.4C514.9,269.1,514.3,270.1,513.7,271.2"/>
				</g>
			</g>
			<g class="st3">
				<defs>
					<path id="SVGID_53_" class="st3" d="M509.4,328.4l-3.2-0.4c-0.9-1.7-1.6-3.7-2.3-5.8c-0.6-1.8-1-3.7-1.4-5.6l3.2,0.4
						c0.4,1.9,0.8,3.8,1.4,5.6C507.7,324.7,508.5,326.6,509.4,328.4z"/>
				</defs>
				<clipPath id="SVGID_54_">
					<use xlink:href="#SVGID_53_"  style="overflow:visible;"/>
				</clipPath>
				<g class="st51">
					<path class="st39" d="M509.4,328.4l-3.2-0.4c-0.9-1.7-1.6-3.7-2.3-5.8c-0.6-1.8-1-3.7-1.4-5.6l3.2,0.4c0.4,1.9,0.8,3.8,1.4,5.6
						C507.7,324.7,508.5,326.6,509.4,328.4"/>
				</g>
			</g>
			<g>
				<polygon class="st17" points="505.7,317 502.5,316.5 502.9,314.4 506.1,314.8 				"/>
			</g>
			<g>
				<path class="st20" d="M522.9,260.8c1.9-1.8,3.9-3.1,5.9-4.1l-15,74.6c-1.4-1.8-2.7-3.9-3.8-6.4L522.9,260.8z"/>
			</g>
			<g>
				<path class="st20" d="M507.8,290.9c1.5-7.3,4-14,7.1-19.5l-8.1,40.4C506,305.2,506.3,298,507.8,290.9z"/>
			</g>
			<g class="st3">
				<defs>
					<path id="SVGID_55_" class="st3" d="M522,342.8l-3.2-0.4c-0.6-0.1-1.1-0.2-1.7-0.3c-6.9-1.7-12.5-8.3-15.7-18.5
						c-3.1-10.1-3.5-22.4-1-34.7c4.6-23.1,17.9-40,31-40.6c0.9,0,1.8,0,2.7,0.1l3.2,0.4c-0.9-0.1-1.8-0.2-2.7-0.1
						c-13.1,0.6-26.4,17.5-31,40.6c-2.5,12.3-2.1,24.6,1,34.7c3.2,10.2,8.7,16.7,15.7,18.5C520.9,342.6,521.5,342.7,522,342.8z"/>
				</defs>
				<clipPath id="SVGID_56_">
					<use xlink:href="#SVGID_55_"  style="overflow:visible;"/>
				</clipPath>
				<g class="st52">
					<path class="st7" d="M522,342.8l-3.2-0.4c-0.6-0.1-1.1-0.2-1.7-0.3c-6.9-1.7-12.5-8.3-15.7-18.5c-1.5-4.8-2.3-10-2.6-15.6
						l3.2,0.4c0.2,5.5,1.1,10.8,2.6,15.6c3.2,10.2,8.7,16.7,15.7,18.5C520.9,342.6,521.5,342.7,522,342.8"/>
					<path class="st6" d="M502.1,308.5l-3.2-0.4c-0.2-3.9,0-7.9,0.4-11.9l3.2,0.4C502.1,300.6,501.9,304.6,502.1,308.5"/>
					<path class="st5" d="M502.5,296.6l-3.2-0.4c0.3-2.4,0.6-4.8,1.1-7.2c0.3-1.3,0.5-2.6,0.9-3.8l3.2,0.4c-0.3,1.3-0.6,2.5-0.9,3.8
						C503.2,291.7,502.8,294.2,502.5,296.6"/>
					<path class="st10" d="M504.5,285.5l-3.2-0.4c0.9-3.7,2-7.1,3.3-10.4l3.2,0.4C506.5,278.4,505.4,281.8,504.5,285.5"/>
					<path class="st11" d="M507.9,275.1l-3.2-0.4c1.5-3.7,3.2-7.1,5.1-10.2l3.2,0.4C511.1,268,509.3,271.4,507.9,275.1"/>
					<path class="st12" d="M513,265l-3.2-0.4c5.3-8.5,11.9-14.2,18.6-15.8l3.2,0.4C524.9,250.8,518.2,256.5,513,265"/>
					<path class="st11" d="M531.6,249.2l-3.2-0.4c1-0.2,2-0.4,3-0.4c0.5,0,0.9,0,1.4,0l3.2,0.4c-0.5,0-0.9,0-1.4,0
						C533.6,248.8,532.6,249,531.6,249.2"/>
					<path class="st10" d="M536,248.8l-3.2-0.4c0.4,0,0.9,0.1,1.3,0.1l3.2,0.4C536.9,248.8,536.5,248.8,536,248.8"/>
				</g>
			</g>
			<g>
				<path class="st15" d="M539,249.2c-1.5-0.4-2.9-0.5-4.4-0.4c-13.1,0.6-26.4,17.5-31,40.6c-2.5,12.3-2.1,24.6,1,34.7
					c3.2,10.2,8.7,16.7,15.7,18.5c1.4,0.4,2.9,0.5,4.3,0.4c12.9-0.6,26.1-17.5,30.7-40.6C560.5,276.6,553.2,252.8,539,249.2z
					 M552.8,301.7c-2,9.9-5.6,18.6-10.1,25.2c-2.4,3.5-5,6.4-7.7,8.5c-1.9,1.5-3.8,2.6-5.7,3.3c-1.5,0.6-3,0.9-4.5,0.9
					c-0.5,0-1.1,0-1.6,0c-0.7-0.1-1.4-0.2-2.2-0.4c-0.9-0.2-1.8-0.5-2.6-0.9c-1.9-0.9-3.6-2.2-5.2-4c-1.5-1.6-2.8-3.6-3.9-5.9
					c-0.9-1.7-1.6-3.7-2.3-5.8c-0.6-1.8-1-3.7-1.4-5.6c-1.6-8.2-1.4-17.6,0.5-27c1.9-9.5,5.5-18,9.9-24.5c2.4-3.5,5-6.4,7.7-8.6
					c1.9-1.5,3.8-2.7,5.8-3.5c1.7-0.7,3.5-1.1,5.2-1.2c0.3,0,0.7,0,1,0c0.9,0,1.8,0.2,2.7,0.4c0.7,0.2,1.4,0.4,2.1,0.7
					c1.9,0.8,3.6,2.1,5.1,3.7c1.5,1.6,2.8,3.5,3.9,5.7c1.7,3.2,2.9,7.1,3.7,11.4C554.9,282.2,554.8,291.8,552.8,301.7"/>
			</g>
			<g>
				<path class="st20" d="M552.2,279.9l-8.4,42.1c3.3-5.8,5.9-12.7,7.4-20.2C552.7,294.1,552.9,286.6,552.2,279.9z"/>
			</g>
			<g>
				<path class="st15" d="M548.8,266.7c-1.1-2.4-2.3-4.6-3.8-6.3l0.3-1.6c1.5,1.6,2.8,3.6,3.9,5.8L548.8,266.7z"/>
			</g>
			<g>
				<path class="st20" d="M515.5,268.1l0,0.2c-0.6,0.9-1.2,1.9-1.7,2.9C514.3,270.1,514.9,269.1,515.5,268.1z"/>
			</g>
			<g>
				<path class="st15" d="M514.8,271.3c-3.1,5.5-5.6,12.2-7.1,19.5c-1.4,7.2-1.8,14.3-1,20.9l-0.6,3.1c-1.2-7.5-1-15.9,0.7-24.2
					c1.5-7.2,3.9-13.9,6.9-19.4c0.6-1,1.1-2,1.7-2.9L514.8,271.3z"/>
			</g>
			<g>
				<path class="st16" d="M523.7,256.9l-0.4,2l-0.4,2L510,325l-0.4,1.9l-0.3,1.5c-0.9-1.7-1.6-3.7-2.3-5.8c-0.6-1.8-1-3.7-1.4-5.6
					l0.4-2.1l0.6-3.1l8.1-40.4l0.6-3.1l0-0.2l0.5-2.6C518.4,262,521,259.1,523.7,256.9z"/>
			</g>
		</g>
	</g>
</g>
</svg>
